# Blender 4.1.0
# www.blender.org
mtllib Research Door.mtl
o Plane.008
v -1.791080 -5.792915 0.193349
v -1.791080 0.700204 0.193349
v -1.551120 1.595743 0.193349
v 0.000000 2.491283 0.193349
v -0.895540 2.251324 0.193349
v 1.551121 1.595743 0.193349
v 1.791080 -5.792915 0.193349
v 1.791080 0.700204 0.193349
v 0.895540 2.251324 0.193349
v 0.000000 2.491283 -0.193344
v 0.895540 2.251324 -0.193344
v 1.551121 1.595743 -0.193344
v -0.895540 2.251324 -0.193344
v -1.791080 -5.792915 -0.193344
v -1.791080 0.700204 -0.193344
v -1.551120 1.595743 -0.193344
v 1.791080 0.700204 -0.193344
v 1.791080 -5.792915 -0.193344
vn -0.0000 -0.0000 1.0000
vn -0.0000 -0.0000 -1.0000
vn -0.2588 0.9659 -0.0000
vn 1.0000 -0.0000 -0.0000
vn -1.0000 -0.0000 -0.0000
vn 0.2588 0.9659 -0.0000
vn -0.7071 0.7071 -0.0000
vn -0.9659 0.2588 -0.0000
vn 0.7071 0.7071 -0.0000
vn -0.0000 -1.0000 -0.0000
vn 0.9659 0.2588 -0.0000
vt 0.215160 0.000000
vt 0.322740 0.028826
vt 0.401494 0.107580
vt 0.430320 0.215160
vt 0.430320 0.995171
vt 0.000000 0.995171
vt 0.000000 0.215160
vt 0.028826 0.107580
vt 0.107580 0.028826
vt 0.645481 0.000000
vt 0.753061 0.028826
vt 0.831815 0.107580
vt 0.860641 0.215160
vt 0.860641 0.995171
vt 0.430321 0.995171
vt 0.430321 0.215160
vt 0.459147 0.107580
vt 0.537901 0.028826
vt 1.000000 0.526774
vt 0.953547 0.526774
vt 0.953547 0.430320
vt 1.000000 0.430320
vt 0.953547 0.883760
vt 0.907094 0.883760
vt 0.907094 0.110422
vt 0.953547 0.110422
vt 0.860641 0.198782
vt 0.907094 0.198782
vt 0.907094 0.972120
vt 0.860641 0.972119
vt 1.000000 0.638149
vt 0.953547 0.638149
vt 0.860641 0.000000
vt 0.907094 0.000000
vt 0.907094 0.088360
vt 0.860641 0.088360
vt 1.000000 0.734603
vt 0.953547 0.734603
vt 0.953547 0.000000
vt 1.000000 0.000000
vt 1.000000 0.430320
vt 0.953547 0.430320
vt 0.907094 0.000000
vt 0.953547 0.000000
s 0
usemtl Material.001
f 4/1/1 5/2/1 3/3/1 2/4/1 1/5/1 7/6/1 8/7/1 6/8/1 9/9/1
f 10/10/2 11/11/2 12/12/2 17/13/2 18/14/2 14/15/2 15/16/2 16/17/2 13/18/2
f 4/19/3 10/20/3 13/21/3 5/22/3
f 7/23/4 18/24/4 17/25/4 8/26/4
f 2/27/5 15/28/5 14/29/5 1/30/5
f 9/31/6 11/32/6 10/20/6 4/19/6
f 5/33/7 13/34/7 16/35/7 3/36/7
f 3/36/8 16/35/8 15/28/8 2/27/8
f 6/37/9 12/38/9 11/32/9 9/31/9
f 1/39/10 14/40/10 18/41/10 7/42/10
f 8/26/11 17/25/11 12/43/11 6/44/11
